<svg height="1600pt" preserveAspectRatio="xMidYMid meet" viewBox="0 0 1600 1600" width="1600pt" xmlns="http://www.w3.org/2000/svg"><g transform="matrix(.1 0 0 -.1 0 1600)"><path d="m7713 13074c-564-68-1113-307-1603-698-145-116-386-347-527-506-187-211-423-548-581-827-319-566-542-1181-687-1893-137-672-174-1485-99-2200 111-1077 456-2081 987-2880 300-450 702-871 1093-1146 459-321 937-505 1473-565 139-15 542-6 681 16 567 89 1053 310 1555 709 140 111 490 465 618 626 660 825 1093 1916 1236 3110 42 349 46 427 46 900s-4 551-46 900c-133 1111-523 2148-1103 2935-176 239-387 475-591 661-536 489-1139 777-1798 859-151 19-497 18-654-1zm634-389c695-91 1350-471 1887-1095 652-759 1093-1827 1235-2990 41-339 46-427 46-880 0-452-5-554-46-879-159-1284-672-2435-1420-3191-280-283-553-483-874-640-389-191-721-270-1139-270-388 0-749 86-1111 264-321 159-590 353-858 620-746 744-1250 1837-1431 3109-52 362-60 491-61 977 0 464 5 562 46 889 144 1162 575 2214 1218 2971 559 658 1244 1049 1971 1123 104 11 430 6 537-8z"/><path d="m12268 10101c-48-16-88-45-116-85l-27-39 5-731c3-402 5-1257 5-1901v-1170l-23-65c-21-56-22-70-12-110 36-146 182-217 303-147 26 16 56 44 69 65 15 27 54 58 147 117 159 100 436 305 572 422 416 360 678 762 766 1173 14 66 18 130 18 285 0 173-3 214-23 303-112 498-441 970-1027 1469-150 128-444 353-510 390-47 26-109 36-147 24zm397-703c279-242 423-389 574-588 189-250 290-461 335-699 20-104 20-283 1-392-45-261-200-529-457-794-136-141-235-226-432-372l-151-111-6 1416c-4 780-9 1472-13 1540-3 67-2 122 2 122s70-55 147-122z"/><path d="m3729 10047c-53-20-93-51-113-89-13-23-56-56-145-113-158-100-435-304-572-422-416-360-678-762-766-1173-14-66-18-130-18-285 0-173 3-214 23-303 112-498 440-968 1027-1469 165-141 485-382 535-403 83-35 184-4 237 73l28 40-5 731c-3 402-5 1258-5 1901v1170l23 65c21 56 22 70 12 110-31 125-157 205-261 167zm-155-3564c3-68 2-123-2-123-8 0-254 212-362 313-248 230-480 533-589 769-109 235-146 490-106 719 45 261 200 529 457 794 136 141 235 226 432 372l151 111 6-1416c4-780 9-1472 13-1539z"/></g></svg>